<svg xmlns="http://www.w3.org/2000/svg" viewBox="0 0 69.58 57.59"><defs><style>.cls-1{fill:#f4cd25;}.cls-2{fill:#f94e63;}.cls-3{fill:#17c5cc;}.cls-4{fill:#ff6f00;}.cls-5{fill:#16405e;}.cls-6{fill:#f62f48;}</style></defs><title>analythic</title><g id="Слой_2" data-name="Слой 2"><g id="_1" data-name="1"><g id="_15" data-name="15"><rect class="cls-1" x="19.3" y="24.35" width="7.49" height="16.51"/><rect class="cls-2" x="28.27" y="17.16" width="7.49" height="23.7"/><rect class="cls-3" x="37.24" y="7.7" width="7.49" height="33.16"/><rect class="cls-4" x="46.21" y="14.46" width="7.49" height="26.41"/><rect class="cls-5" x="55.7" y="11.14" width="7.49" height="29.72"/><polygon class="cls-6" points="59.67 8.62 61.97 2.87 55.84 3.75 59.67 8.62"/><path class="cls-6" d="M21.47,22.36a1.2,1.2,0,0,1-.87-2L39.21.93A1.2,1.2,0,0,1,40.84.84l10,8.23,8-4.81A1.2,1.2,0,0,1,60,6.31l-8.7,5.25a1.21,1.21,0,0,1-1.38-.1L40.17,3.39,22.33,22A1.21,1.21,0,0,1,21.47,22.36Z"/><path class="cls-2" d="M42.37,2.19A2.2,2.2,0,1,1,40.17,0,2.2,2.2,0,0,1,42.37,2.19Z"/><path class="cls-5" d="M68.39,47H13.76a1.19,1.19,0,0,1-1.2-1.19V6.68a1.2,1.2,0,1,1,2.39,0V44.56H68.39a1.2,1.2,0,0,1,0,2.39Z"/><path class="cls-3" d="M13.16,44.43,13.1,57.59A13.16,13.16,0,0,1,1.8,37.79Z"/><path class="cls-2" d="M13.16,44.43l6.52,11.42a13.11,13.11,0,0,1-6.58,1.74Z"/><path class="cls-2" d="M13.16,44.43l6.52,11.42a13.08,13.08,0,0,0,4.84-4.79L13.16,44.43Z"/><path class="cls-1" d="M26.32,44.49a13.07,13.07,0,0,1-1.8,6.57L13.16,44.43Z"/><path class="cls-4" d="M6.63,33A13.21,13.21,0,0,0,1.8,37.79l11.36,6.64.05-.09-.1-13.07A13.17,13.17,0,0,0,6.63,33Z"/><polygon class="cls-6" points="13.35 44.1 13.29 44.35 13.16 44.43 13.35 44.1"/><path class="cls-5" d="M24.59,37.9a13.11,13.11,0,0,1,1.73,6.59l-13.16-.06.13-.08.06-.25-.14.24L13.1,31.27h.12a12.67,12.67,0,0,1,2.91.34,13.15,13.15,0,0,1,8.46,6.29Z"/></g></g></g></svg>