<svg xmlns="http://www.w3.org/2000/svg" viewBox="0 0 61.64 75.12"><defs><style>.cls-1{fill:#0ec0c0;}.cls-2{fill:#f4cd25;}.cls-3{fill:#f62f48;}.cls-4{fill:#78909c;}.cls-5{fill:#fff;}.cls-6{fill:#2a445d;}.cls-7{fill:#b2bbc4;}.cls-8{fill:#e9d3c0;}.cls-9{fill:#f84e63;}.cls-10{fill:#cd1b31;}.cls-11{fill:#17c4cb;}.cls-12{fill:#14afbe;}</style></defs><title>employees</title><g id="Слой_2" data-name="Слой 2"><g id="_1" data-name="1"><g id="_13" data-name="13"><path class="cls-1" d="M10.52,2.53a2.49,2.49,0,1,0,5,0,2.49,2.49,0,1,0-5,0Z"/><path class="cls-1" d="M8.58,7.1A1.42,1.42,0,0,1,10,5.65h6.1a1.41,1.41,0,0,1,1.4,1.42c0,2.15,0,4.23,0,6.4a1.39,1.39,0,0,1-1.37,1.4h0c0,1.82,0,3.64,0,5.43a1.39,1.39,0,0,1-1.37,1.39h0a1.39,1.39,0,0,1-1.36-1.41c0-2.05,0-3.29,0-5.39h-.48c0,2.07,0,3.3,0,5.35a1.37,1.37,0,0,1-1.36,1.41h0a1.38,1.38,0,0,1-1.37-1.38c0-1.79,0-3.61,0-5.42l-.18,0h0a1.39,1.39,0,0,1-1.33-1.44C8.61,11.25,8.62,9.2,8.58,7.1Z"/><path class="cls-2" d="M32.6,2.53a2.49,2.49,0,1,0,5,0,2.49,2.49,0,1,0-5,0Z"/><path class="cls-2" d="M30.66,7.1a1.42,1.42,0,0,1,1.4-1.45h6.1a1.4,1.4,0,0,1,1.39,1.42c0,2.15,0,4.23,0,6.4a1.39,1.39,0,0,1-1.37,1.4h0c0,1.82,0,3.64,0,5.43a1.39,1.39,0,0,1-1.38,1.39h0a1.39,1.39,0,0,1-1.36-1.41c0-2.05,0-3.29,0-5.39h-.48c0,2.07,0,3.3,0,5.35a1.37,1.37,0,0,1-1.36,1.41h0a1.39,1.39,0,0,1-1.38-1.38c0-1.79,0-3.61,0-5.42l-.18,0h0a1.39,1.39,0,0,1-1.33-1.44C30.68,11.25,30.7,9.2,30.66,7.1Z"/><path class="cls-3" d="M54.68,2.53a2.49,2.49,0,1,0,5,0,2.49,2.49,0,1,0-5,0Z"/><path class="cls-3" d="M52.74,7.1a1.42,1.42,0,0,1,1.4-1.45h6.1a1.41,1.41,0,0,1,1.39,1.42c0,2.15,0,4.23,0,6.4a1.39,1.39,0,0,1-1.37,1.4h0c0,1.82,0,3.64,0,5.43a1.39,1.39,0,0,1-1.38,1.39h0a1.39,1.39,0,0,1-1.36-1.41c0-2.05,0-3.29,0-5.39H57c0,2.07,0,3.3,0,5.35a1.37,1.37,0,0,1-1.36,1.41h0a1.39,1.39,0,0,1-1.38-1.38c0-1.79,0-3.61,0-5.42l-.18,0h0a1.39,1.39,0,0,1-1.33-1.44C52.76,11.25,52.78,9.2,52.74,7.1Z"/><polygon class="cls-4" points="59.54 35.8 7.96 35.8 7.96 75.12 44.29 75.12 59.54 65.5 59.54 35.8"/><polygon class="cls-5" points="56.4 38.19 11.1 38.19 11.1 72.73 43.01 72.73 56.4 64.28 56.4 38.19"/><rect class="cls-6" x="13.57" y="55.21" width="38.9" height="4.14"/><rect class="cls-6" x="13.57" y="42.51" width="38.9" height="4.14"/><rect class="cls-6" x="13.57" y="48.86" width="38.9" height="4.14"/><rect class="cls-6" x="13.57" y="61.55" width="38.9" height="4.14"/><polygon class="cls-7" points="59.54 65.5 44.29 75.12 44.29 65.5 59.54 65.5"/><polygon class="cls-8" points="16.7 60.04 21.67 60.91 24.57 61.42 25.84 60.12 25.01 56 24.29 52.29 17.92 54.5 16.7 60.04"/><rect class="cls-9" x="9.23" y="35.65" width="5.19" height="24.17" transform="translate(-30.55 22.77) rotate(-45.58)"/><path class="cls-10" d="M5,37.43,22.28,54.35l2-2.06L8,36.33a1.37,1.37,0,0,0-1.94,0Z"/><path class="cls-10" d="M.41,44.08,16.7,60l1.94-2L1.38,41.14l-1,1A1.37,1.37,0,0,0,.41,44.08Z"/><rect class="cls-11" x="10.65" y="39.02" width="5.19" height="20.21" transform="translate(-31.11 24.2) rotate(-45.58)"/><rect class="cls-12" x="14.63" y="36.14" width="2.88" height="20.21" transform="translate(-28.21 25.36) rotate(-45.59)"/><rect class="cls-12" x="9.06" y="41.87" width="2.78" height="20.21" transform="translate(-33.99 23.06) rotate(-45.58)"/><path class="cls-8" d="M21.63,52.33l.65,2-3.23-.06a.51.51,0,0,0-.52.53l.11,3.23L17.13,58a.51.51,0,0,0-.54.55L16.7,60l3.16-1.18,2.58-3.11,1.86-3.46-2-.61A.51.51,0,0,0,21.63,52.33Z"/><path class="cls-10" d="M24.12,56.46l.22,1.38a.38.38,0,0,1-.49.43L23.08,58a.49.49,0,0,0-.57.68l.35.7a.39.39,0,0,1-.24.55l-.69.18a.48.48,0,0,0-.3.7l0,.06,3.6.63a.61.61,0,0,0,.71-.73L25,56l-.29-.08A.48.48,0,0,0,24.12,56.46Z"/><path class="cls-6" d="M58.6,32.28H11.82a.74.74,0,1,1,0-1.48H58.6a.74.74,0,1,1,0,1.48Z"/><path class="cls-6" d="M35.21,39.21a.74.74,0,0,1-.74-.74V27.21a.75.75,0,0,1,.74-.75.76.76,0,0,1,.75.75V38.47A.75.75,0,0,1,35.21,39.21Z"/><path class="cls-6" d="M11.76,32.09a.74.74,0,0,1-.74-.74V26.9a.74.74,0,1,1,1.48,0v4.45A.74.74,0,0,1,11.76,32.09Z"/><path class="cls-6" d="M58.67,32.09a.74.74,0,0,1-.75-.74V26.9a.75.75,0,1,1,1.49,0v4.45A.74.74,0,0,1,58.67,32.09Z"/><circle class="cls-1" cx="11.55" cy="26.28" r="1.67"/><circle class="cls-2" cx="35.25" cy="26.28" r="1.67"/><path class="cls-6" d="M36.92,39.64A1.67,1.67,0,1,1,35.25,38,1.66,1.66,0,0,1,36.92,39.64Z"/><circle class="cls-3" cx="58.52" cy="26.28" r="1.67"/></g></g></g></svg>