<svg xmlns="http://www.w3.org/2000/svg" viewBox="0 0 59.95 54.64"><defs><style>.cls-1{isolation:isolate;}.cls-2{fill:#17c5cc;}.cls-3{fill:#0ec0c0;}.cls-4{mix-blend-mode:multiply;}.cls-5{fill:#2dd;}.cls-6{opacity:0.59;mix-blend-mode:overlay;}.cls-7{fill:#bdbdbd;}.cls-8{fill:#dfdfdf;}.cls-9{fill:#16405e;}.cls-10{fill:#1c4d6b;}.cls-11{fill:#f42a39;}.cls-12{fill:#f94e63;}</style></defs><title>services</title><g class="cls-1"><g id="Слой_2" data-name="Слой 2"><g id="_1" data-name="1"><g id="_5" data-name="5"><path class="cls-2" d="M51.19,22.82c0,.28,0,.55,0,.82,0,.44,0,.89-.08,1.34,0,.27,0,.54-.07.8a22.83,22.83,0,0,1-2.47,8q-.3.59-.63,1.14A23.14,23.14,0,0,1,34.26,45.31a22,22,0,0,1-4.31.75c-.41,0-.83.06-1.25.07H27.56c-.42,0-.85,0-1.28-.07L25.41,46A25.39,25.39,0,0,1,22,45.31,23,23,0,0,1,8.32,34.9q-.33-.55-.63-1.14a22.66,22.66,0,0,1-1.62-3.94.65.65,0,0,1,0-.13c-.12-.39-.23-.78-.32-1.18a21.81,21.81,0,0,1-.64-4.87,10.84,10.84,0,0,1,0-1.14c0-.71.07-1.42.15-2.14a.28.28,0,0,0,0-.09c0-.3.08-.6.13-.9a22.43,22.43,0,0,1,2.1-6.55c.19-.38.38-.76.6-1.13A23.11,23.11,0,0,1,22,.82a22.74,22.74,0,0,1,4.3-.74c.41,0,.83-.06,1.25-.07H28.7c.42,0,.85,0,1.28.07l.86.08a24.93,24.93,0,0,1,3.42.67A23.06,23.06,0,0,1,48.19,11.69c.21.37.41.74.6,1.13a1.09,1.09,0,0,0,.08.15c.26.54.5,1.08.72,1.64a22.52,22.52,0,0,1,1.19,4.08,22.78,22.78,0,0,1,.41,3.81Z"/><path class="cls-3" d="M49.35,21.13A23.06,23.06,0,0,1,5.71,28.51a22.82,22.82,0,0,1-.49-8.15A23.07,23.07,0,0,1,48.87,13,22.89,22.89,0,0,1,49.35,21.13Z"/><g class="cls-4"><path class="cls-5" d="M51.19,23.64q0-.57,0-1.14H43.12a36.91,36.91,0,0,0-1.37-9.68h7c-.19-.39-.39-.76-.6-1.13H41.4A26.9,26.9,0,0,0,38.82,6,17.36,17.36,0,0,0,34.26.83,24.93,24.93,0,0,0,30.84.16L30,.08c4.39,1,8.13,5.41,10.23,11.61H28.7V0H27.56V11.69H16.05C18.15,5.48,21.9,1,26.31.08A22.74,22.74,0,0,0,22,.82,17.31,17.31,0,0,0,17.44,6a27.42,27.42,0,0,0-2.59,5.72H8.06c-.22.37-.41.75-.6,1.13h7.05a37.33,37.33,0,0,0-1.38,9.68H5.07a10.84,10.84,0,0,0,0,1.14h8.06a37.08,37.08,0,0,0,1.51,10.12H7.69q.3.59.63,1.14H15a26.53,26.53,0,0,0,2.44,5.27A17.22,17.22,0,0,0,22,45.31a25.39,25.39,0,0,0,3.41.67l.87.08A10.92,10.92,0,0,1,21,42.91a21.78,21.78,0,0,1-4.74-8H27.56V46.13H28.7V34.9H40.05c-2.12,6-5.81,10.22-10.1,11.16a22,22,0,0,0,4.31-.75,17.5,17.5,0,0,0,4.56-5.14,26.51,26.51,0,0,0,2.43-5.27h6.69q.33-.55.63-1.14h-7a36.7,36.7,0,0,0,1.5-10.12ZM27.56,33.76H15.83a35.77,35.77,0,0,1-1.56-10.12H27.56Zm0-11.26H14.27a37.4,37.4,0,0,1,.4-5,35.83,35.83,0,0,1,1-4.64H27.56ZM40.43,33.76H28.7V23.64H42A35.77,35.77,0,0,1,40.43,33.76ZM28.7,22.5V12.82H40.57A36.39,36.39,0,0,1,42,22.5Z"/></g><g class="cls-6"><path class="cls-7" d="M41.85,8.66C25.05-.38,5.52,16.6,12,33.74-2.57,14.3,25.06-9.22,41.85,8.66Z"/></g><g class="cls-4"><path class="cls-8" d="M48.87,13A23.07,23.07,0,0,1,5.71,28.51a22.28,22.28,0,0,0,2,5.25q.3.59.63,1.14A23,23,0,0,0,22,45.31a25.39,25.39,0,0,0,3.41.67l.87.08c.43,0,.86.06,1.28.07H28.7c.42,0,.84,0,1.25-.07a22,22,0,0,0,4.31-.75A23.14,23.14,0,0,0,47.94,34.9q.33-.55.63-1.14a22.83,22.83,0,0,0,2.47-8c.08-.72.13-1.43.15-2.14q0-.57,0-1.14A23,23,0,0,0,48.87,13Z"/></g><path class="cls-9" d="M7.58,40.64a1.37,1.37,0,0,1-1.14-2.15l12.4-18.31A1.38,1.38,0,0,1,21,20L33.89,32.91,48.34,9a1.38,1.38,0,0,1,2.36,1.43L35.34,35.84a1.36,1.36,0,0,1-1,.66,1.38,1.38,0,0,1-1.14-.39l-13-13L8.72,40A1.38,1.38,0,0,1,7.58,40.64Z"/><path class="cls-10" d="M11.71,39.86a4.14,4.14,0,1,1-4.13-4.14A4.13,4.13,0,0,1,11.71,39.86Z"/><path class="cls-10" d="M24.06,22.11A4.14,4.14,0,1,1,19.93,18,4.13,4.13,0,0,1,24.06,22.11Z"/><path class="cls-10" d="M37.85,34.32a4.14,4.14,0,1,1-4.14-4.14A4.13,4.13,0,0,1,37.85,34.32Z"/><path class="cls-10" d="M53.21,9.9a4.14,4.14,0,1,1-4.13-4.14A4.13,4.13,0,0,1,53.21,9.9Z"/><path class="cls-9" d="M58.61,50.41H1.34A1.34,1.34,0,0,1,0,49.07V10.22a1.34,1.34,0,0,1,2.68,0V47.73H58.61a1.34,1.34,0,1,1,0,2.68Z"/><path class="cls-11" d="M55.07,17.5a.49.49,0,0,1,0,.11.69.69,0,0,1-.05.13A23.68,23.68,0,0,1,44.09,30.67c-.31.17-.61.33-.92.48q2.7.92,5.42,1.56C46,40.86,34.32,52.61,15.1,53.37c1.72,1.11,26,6.09,40.37-15.83,1.52,1.63,3.26,3.93,3.26,3.93S61.09,28.55,55.07,17.5Z"/><path class="cls-12" d="M55,17.74A23.68,23.68,0,0,1,44.09,30.67c-.31.17-.61.33-.92.48q2.7.92,5.42,1.56C46,40.86,34.32,52.61,15.1,53.37l.19.12c8.17.33,40.91-.2,39.74-35.88A.69.69,0,0,1,55,17.74Z"/></g></g></g></g></svg>