<svg xmlns="http://www.w3.org/2000/svg" xmlns:xlink="http://www.w3.org/1999/xlink" viewBox="0 0 992.87 543.57"><defs><style>.cls-1{isolation:isolate;}.cls-2{fill:#d3d5d3;}.cls-12,.cls-15,.cls-16,.cls-18,.cls-2,.cls-22,.cls-23,.cls-24,.cls-25,.cls-3,.cls-53{mix-blend-mode:multiply;}.cls-3{opacity:0.5;}.cls-4{fill:#737373;}.cls-5{fill:#ccc;}.cls-6{fill:#999;}.cls-7{fill:#1d2c2c;}.cls-8{fill:#46676c;}.cls-11,.cls-17,.cls-19,.cls-20,.cls-21,.cls-27,.cls-29,.cls-30,.cls-31,.cls-48,.cls-9{mix-blend-mode:soft-light;}.cls-9{fill:url(#linear-gradient);}.cls-10{fill:#98b1c7;}.cls-11{fill:url(#linear-gradient-2);}.cls-12{fill:url(#linear-gradient-3);}.cls-13{fill:#0e1714;}.cls-14{fill:#bfd2e1;}.cls-15{fill:url(#linear-gradient-4);}.cls-16{fill:url(#linear-gradient-5);}.cls-17{fill:url(#linear-gradient-6);}.cls-18{fill:url(#linear-gradient-7);}.cls-19{fill:url(#linear-gradient-8);}.cls-20{fill:url(#linear-gradient-9);}.cls-21{fill:url(#linear-gradient-10);}.cls-22{fill:url(#linear-gradient-11);}.cls-23{fill:url(#linear-gradient-12);}.cls-24{fill:url(#linear-gradient-13);}.cls-25{fill:url(#linear-gradient-14);}.cls-26{fill:#ecebf3;}.cls-27{fill:url(#linear-gradient-15);}.cls-28{fill:#0074a6;}.cls-29{fill:url(#linear-gradient-16);}.cls-30{fill:url(#linear-gradient-17);}.cls-31{fill:url(#linear-gradient-18);}.cls-32{mix-blend-mode:color-burn;fill:url(#linear-gradient-19);}.cls-33{fill:#80979a;}.cls-34{fill:#ffa47c;}.cls-35{fill:#9a9393;}.cls-36{fill:#ffbd95;}.cls-37{fill:#b8b3b3;}.cls-38{fill:#a39d9d;}.cls-39{fill:#8d3b26;}.cls-40{fill:#191919;}.cls-41{fill:#00233f;}.cls-42{fill:#002d56;}.cls-43{fill:#d7d4d4;}.cls-44{fill:#cfcccc;}.cls-45{fill:#004877;}.cls-46{fill:#807d79;}.cls-47{fill:#65635e;}.cls-48{fill:url(#linear-gradient-20);}.cls-49{fill:url(#linear-gradient-21);}.cls-50{fill:url(#linear-gradient-22);}.cls-51{fill:url(#linear-gradient-23);}.cls-52{fill:#3d3d3d;}.cls-53{fill:#979797;}.cls-54{fill:#625757;}.cls-55{fill:#2c2c2c;}.cls-56{fill:#bd0000;}.cls-57{fill:#a10000;}.cls-58{fill:#740000;}.cls-59{fill:url(#linear-gradient-24);}.cls-60{fill:url(#linear-gradient-25);}.cls-61{fill:url(#linear-gradient-26);}.cls-62{fill:url(#linear-gradient-27);}.cls-63{fill:#1c5c92;}.cls-64{fill:#303030;}.cls-65{fill:#7f7f7f;}</style><linearGradient id="linear-gradient" x1="348.48" y1="183.44" x2="387.97" y2="183.44" gradientUnits="userSpaceOnUse"><stop offset="0" stop-color="#b5bfbf"/><stop offset="1" stop-color="#fff"/></linearGradient><linearGradient id="linear-gradient-2" x1="-633.91" y1="183.44" x2="-594.43" y2="183.44" gradientTransform="matrix(-1, 0, 0, 1, 65.34, 0)" xlink:href="#linear-gradient"/><linearGradient id="linear-gradient-3" x1="-557.29" y1="279.37" x2="-495.58" y2="252.44" gradientTransform="matrix(-1, 0, 0, 1, 89.5, 0)" xlink:href="#linear-gradient"/><linearGradient id="linear-gradient-4" x1="-567.36" y1="304.82" x2="-537.13" y2="305.47" gradientTransform="matrix(-1, 0, 0, 1, 84.76, 0)" gradientUnits="userSpaceOnUse"><stop offset="0" stop-color="#d9e8e6"/><stop offset="1" stop-color="#fff"/></linearGradient><linearGradient id="linear-gradient-5" x1="-542.61" y1="296.93" x2="-484.71" y2="298.18" gradientTransform="matrix(-1, 0, 0, 1, 84.76, 0)" xlink:href="#linear-gradient"/><linearGradient id="linear-gradient-6" x1="-523.35" y1="278.83" x2="-522.52" y2="240.79" gradientTransform="matrix(-1, 0, 0, 1, 84.76, 0)" xlink:href="#linear-gradient"/><linearGradient id="linear-gradient-7" x1="-562.06" y1="279.37" x2="-500.35" y2="252.44" gradientTransform="matrix(-1, 0, 0, 1, 84.76, 0)" gradientUnits="userSpaceOnUse"><stop offset="0" stop-color="#b5bfbf"/><stop offset="0.13" stop-color="#c1c9c9"/><stop offset="0.71" stop-color="#eef0f0"/><stop offset="1" stop-color="#fff"/></linearGradient><linearGradient id="linear-gradient-8" x1="-567.45" y1="268.72" x2="-566.99" y2="247.58" gradientTransform="matrix(-1, 0, 0, 1, 84.76, 0)" xlink:href="#linear-gradient"/><linearGradient id="linear-gradient-9" x1="-542.74" y1="271.6" x2="-542.27" y2="250.44" gradientTransform="matrix(-1, 0, 0, 1, 84.76, 0)" xlink:href="#linear-gradient"/><linearGradient id="linear-gradient-10" x1="-556.58" y1="274.88" x2="-555.94" y2="245.88" gradientTransform="matrix(-1, 0, 0, 1, 84.76, 0)" xlink:href="#linear-gradient"/><linearGradient id="linear-gradient-11" x1="-596.74" y1="260.67" x2="-517.28" y2="260.67" gradientTransform="matrix(-1, 0, 0, 1, 84.76, 0)" xlink:href="#linear-gradient"/><linearGradient id="linear-gradient-12" x1="402.49" y1="279.37" x2="464.21" y2="252.44" gradientTransform="matrix(1, 0, 0, 1, 0, 0)" xlink:href="#linear-gradient-7"/><linearGradient id="linear-gradient-13" x1="397.19" y1="304.82" x2="427.43" y2="305.47" gradientTransform="matrix(1, 0, 0, 1, 0, 0)" xlink:href="#linear-gradient-4"/><linearGradient id="linear-gradient-14" x1="421.95" y1="296.93" x2="479.86" y2="298.18" xlink:href="#linear-gradient"/><linearGradient id="linear-gradient-15" x1="441.21" y1="278.83" x2="442.04" y2="240.79" xlink:href="#linear-gradient"/><linearGradient id="linear-gradient-16" x1="397.11" y1="268.72" x2="397.57" y2="247.58" xlink:href="#linear-gradient"/><linearGradient id="linear-gradient-17" x1="421.81" y1="271.6" x2="422.27" y2="250.44" xlink:href="#linear-gradient"/><linearGradient id="linear-gradient-18" x1="407.98" y1="274.88" x2="408.61" y2="245.88" xlink:href="#linear-gradient"/><linearGradient id="linear-gradient-19" x1="367.81" y1="260.67" x2="447.28" y2="260.67" xlink:href="#linear-gradient"/><linearGradient id="linear-gradient-20" x1="-659.42" y1="151.19" x2="-654.28" y2="151.19" gradientTransform="matrix(-1, 0, 0, 1, 132.15, 0)" gradientUnits="userSpaceOnUse"><stop offset="0"/><stop offset="0.07" stop-color="#313131"/><stop offset="0.16" stop-color="#676767"/><stop offset="0.25" stop-color="#959595"/><stop offset="0.34" stop-color="#bbb"/><stop offset="0.42" stop-color="#d9d9d9"/><stop offset="0.51" stop-color="#eee"/><stop offset="0.59" stop-color="#fbfbfb"/><stop offset="0.67" stop-color="#fff"/></linearGradient><linearGradient id="linear-gradient-21" x1="-846.58" y1="319.66" x2="-846.58" y2="263.25" gradientTransform="matrix(-1, 0, 0, 1, 2.28, 0)" gradientUnits="userSpaceOnUse"><stop offset="0" stop-color="#9fb2b2"/><stop offset="0.33" stop-color="#a3b4b4"/><stop offset="0.64" stop-color="#aebaba"/><stop offset="0.93" stop-color="#c1c3c3"/><stop offset="1" stop-color="#c6c6c6"/></linearGradient><linearGradient id="linear-gradient-22" x1="-846.58" y1="312.54" x2="-846.58" y2="261.38" xlink:href="#linear-gradient-21"/><linearGradient id="linear-gradient-23" x1="-846.58" y1="296.45" x2="-846.58" y2="277.14" xlink:href="#linear-gradient-21"/><linearGradient id="linear-gradient-24" x1="-2018.97" y1="456.41" x2="-2018.97" y2="384.88" gradientTransform="translate(2648.35)" xlink:href="#linear-gradient-21"/><linearGradient id="linear-gradient-25" x1="-2018.97" y1="447.39" x2="-2018.97" y2="382.51" gradientTransform="translate(2648.35)" xlink:href="#linear-gradient-21"/><linearGradient id="linear-gradient-26" x1="-2018.97" y1="426.97" x2="-2018.97" y2="402.49" gradientTransform="translate(2648.35)" xlink:href="#linear-gradient-21"/><linearGradient id="linear-gradient-27" x1="-2018.97" y1="418.91" x2="-2018.97" y2="407.31" gradientTransform="translate(2648.35)" xlink:href="#linear-gradient-21"/></defs><title>Ресурс 3</title><g class="cls-1"><g id="Слой_2" data-name="Слой 2"><g id="Слой_1-2" data-name="Слой 1"><ellipse class="cls-2" cx="353.34" cy="513.61" rx="120.45" ry="29.96"/><ellipse class="cls-2" cx="658.56" cy="475.39" rx="134.65" ry="29.96"/><ellipse class="cls-2" cx="160.12" cy="423.54" rx="160.12" ry="21.9"/><ellipse class="cls-2" cx="832.75" cy="414.9" rx="160.12" ry="21.9"/><path class="cls-2" d="M695.93,399.49c0,12.1-92.78,21.9-207.22,21.9s-207.21-9.8-207.21-21.9,98.07-16,212.51-16S695.93,387.4,695.93,399.49Z"/><g class="cls-3"><polygon class="cls-4" points="549.14 49.91 549.4 48.55 305.47 8.05 305.08 9.39 433.83 49.89 434.35 48.57 314.64 10.92 549.14 49.91"/><rect class="cls-5" x="273.58" y="45.17" width="279.3" height="8.11" transform="translate(826.47 98.46) rotate(180)"/><polygon class="cls-6" points="273.58 49.23 288.32 49.23 306.91 45.17 311.03 49.23 552.89 49.23 552.89 53.29 273.58 53.29 273.58 49.23"/><rect class="cls-5" x="288.4" y="5.08" width="18.51" height="349.45" transform="translate(595.3 359.61) rotate(180)"/><path class="cls-6" d="M293.65,5.08H288.4V354.53h18.51s-13.26-54.59-13.26-69.93Z"/><path class="cls-7" d="M262.21,382H384.08L364.4,358.92a13,13,0,0,0-9.89-4.39H274.66c-6.88,0-12.45,5-12.45,11.2Z"/><path class="cls-4" d="M289.07,8.05h17.15a4.28,4.28,0,0,0,4.47-4h0a4.28,4.28,0,0,0-4.47-4H289.07a4.28,4.28,0,0,0-4.47,4h0A4.28,4.28,0,0,0,289.07,8.05Z"/><rect class="cls-7" x="475.08" y="53.29" width="4.11" height="12.85" transform="translate(954.28 119.42) rotate(180)"/><path class="cls-4" d="M345.61,104.16c-.45-.86-.88-1.77-1.27-2.71-5.32,7.12-14.52,14.61-29.7,14.61h-.53c-25.86-.3-40.1-14.25-40.1-39.29,0-22.27,13.81-25.4,14.39-25.51v3.88C288,55.24,278,57.61,278,76.77c0,16.09,6.26,35.34,36.13,35.68h.48c14.71,0,23.25-7.78,28.11-15.53a57.21,57.21,0,0,1-2.18-15.82c0-8.56,1.94-18.56,7.42-18.56a4.46,4.46,0,0,1,3.81,2.28c3.09,4.87,2.59,19.9-4.77,32.55,2.41,7.36,7.35,15.52,17.47,15.52,10.37,0,18.58-8.72,23.66-18.72a63.87,63.87,0,0,1-3.55-19.69,22.38,22.38,0,0,1,1.21-8.07c1.42-3.56,3.88-4.09,5.22-4.09a6.08,6.08,0,0,1,5.54,3.49A15.69,15.69,0,0,1,398,73c0,6-1.93,13.94-5.53,21.41,3.75,10.06,10.06,18.51,18,18.51,8.37,0,15.43-9,19.89-19.33A80.35,80.35,0,0,1,428,75.72C428,67.28,430,63,434.09,63a4.66,4.66,0,0,1,4.39,3.14,15.28,15.28,0,0,1,.95,5.92c0,6-1.75,14.15-4.94,21.83.56,2.19,1.21,4.31,1.92,6.28,2.83,7.85,6.52,12.73,9.64,12.73,5,0,8.16-9.47,8.16-24.7,0-20.12,9.19-29.5,15.39-29.5a10,10,0,0,1,9.59,7.44h-4.11a5.36,5.36,0,0,0-5.48-3.82c-3.24,0-11.37,7.7-11.37,25.88,0,12.92-2.11,28.31-12.18,28.31-6.3,0-11.07-7.82-14.12-17.19-5.05,9.53-12.44,17.19-21.51,17.19-9.33,0-16.13-7.94-20.4-17.61-5.79,9.71-14.53,17.61-25.52,17.61C356.37,116.5,349.84,112.23,345.61,104.16Zm-.05-12.57h0a47.49,47.49,0,0,0,2.33-6.37c3-10.46,1.46-18.4.15-19.08C346,66.8,343,78.16,345.56,91.59Zm44-24a19.32,19.32,0,0,0-1,6.84,56.51,56.51,0,0,0,2,14.17A46,46,0,0,0,394,73a12.6,12.6,0,0,0-1-5.63c-.73-1.41-1.55-1.41-1.9-1.41C390.33,65.93,389.76,67.23,389.6,67.64ZM432,75.72a67.23,67.23,0,0,0,.95,10.72,51.68,51.68,0,0,0,2.48-14.39,12.08,12.08,0,0,0-.67-4.61c-.22-.49-.48-.83-.65-.83C433.52,66.61,432,68.77,432,75.72Z"/><rect class="cls-7" x="432.03" y="53.29" width="4.11" height="12.85" transform="translate(868.18 119.42) rotate(180)"/><rect class="cls-7" x="388.99" y="53.29" width="4.11" height="12.85" transform="translate(782.08 119.42) rotate(180)"/><rect class="cls-7" x="345.94" y="53.29" width="4.11" height="12.85" transform="translate(695.98 119.42) rotate(180)"/><rect class="cls-4" x="475.08" y="66.13" width="4.11" height="61.52"/></g><path class="cls-8" d="M388,187.56a7.11,7.11,0,0,1-5-3.61c-1.43-3.08-.48-7.53-1.91-9.74s-11.76-8.67-23.76-2c-9.92,5.56-9.73,11.7-9.73,12.81s-.49,11.67,20.09,13.61c10.08,1,16.73-1.38,16.73-1.38Z"/><path class="cls-9" d="M383,184c-1.43-3.08-.48-7.53-1.91-9.74s-11.76-8.67-23.76-2c-5.42,3-7.76,6.23-8.84,8.69a23.45,23.45,0,0,1,6.83-5.5c12-6.7,22.33-.27,23.76,1.95s.47,6.69,1.89,9.76a7.2,7.2,0,0,0,5,3.62l-2.5,6.83a9.54,9.54,0,0,0,1-.31l3.56-9.73A7.11,7.11,0,0,1,383,184Z"/><path class="cls-10" d="M659.77,187.56a7.14,7.14,0,0,0,5-3.61c1.43-3.08.48-7.53,1.9-9.74s11.75-8.67,23.75-2c9.92,5.56,9.73,11.7,9.73,12.81s.5,11.67-20.09,13.61c-10.06,1-16.72-1.38-16.72-1.38Z"/><path class="cls-11" d="M664.76,184c1.43-3.08.48-7.53,1.9-9.74s11.75-8.67,23.75-2c5.42,3,7.77,6.23,8.84,8.69a23.11,23.11,0,0,0-6.82-5.5c-12-6.7-22.32-.27-23.75,1.95s-.47,6.69-1.9,9.76a7.18,7.18,0,0,1-5,3.62l2.51,6.83a8.33,8.33,0,0,1-1-.31l-3.56-9.73A7.14,7.14,0,0,0,664.76,184Z"/><path class="cls-12" d="M654.74,188.19H524.61V320.7h62.52s10.25-45.94,20.55-66.93C620.39,227.86,654.74,188.19,654.74,188.19Z"/><rect class="cls-13" x="644.16" y="300.41" width="46.6" height="100.28" rx="2"/><path class="cls-14" d="M524.61,95.25c18.48.28,34.71.82,46,1.82,14.25,1.23,44.49,3.38,56.06,13.17C643,124,653.43,170.48,663.31,191c6.13,12.74,25.51,34.86,26.59,49.44,2.5,33.53-.53,114.33-8.07,123.17-5.25,6.18-80.6,6.37-157.22,5Z"/><path class="cls-15" d="M690.27,246l-88.22,43.21-14.89,70s80.32,22.49,97.08-35.77C687.07,313.55,690.27,246,690.27,246Z"/><path class="cls-8" d="M602,274.46s62.23,2.47,73.64-7.2c5.29-4.5,7.67-19,4.27-23.38-4.24-5.53-18.89-3.85-25.19-3.47-10.57.61-42.27,7.38-42.27,7.38Z"/><path class="cls-16" d="M651.13,273.45s-26.4,4.61-46,21.36c-11.4,9.75-15.43,25.89-15.43,25.89h-2.55l12.44-45.94Z"/><path class="cls-17" d="M690.73,243.17c.51,6.34-21.82,3.89-48.93,10.73C609.64,262,524.72,279,524.72,279v-44.3c37.66,0,86.88,2.8,105.35,0,20-3,49.65-5.4,57,0C687.08,234.68,690.24,236.81,690.73,243.17Z"/><path class="cls-18" d="M654.78,188.19H524.62V320.7h62.54s10.22-45.94,20.55-66.93C620.43,227.86,654.78,188.19,654.78,188.19Z"/><path class="cls-19" d="M641.4,255.44c0,6.82,4.71,12.36,10.54,12.36s10.51-5.54,10.51-12.36-4.71-12.33-10.51-12.33S641.4,248.62,641.4,255.44Z"/><path class="cls-20" d="M616.67,258.35c0,6.78,4.74,12.32,10.55,12.32s10.53-5.54,10.53-12.32S633.05,246,627.22,246,616.67,251.51,616.67,258.35Z"/><path class="cls-21" d="M680,243.88s-7.83-8.37-34.43-2.51-33,6.42-33,6.42l-10.44,26.67a29.57,29.57,0,0,1,15.43-17.57C659.53,237.46,680,243.88,680,243.88Z"/><path class="cls-22" d="M675.28,264.37c3.83-3.25,6.11-11.66,5.79-17.78,1.46,5.94-.9,16.86-5.4,20.67-11.38,9.67-73.62,7.2-73.62,7.2l1.09-2.8C612.3,272,664.88,273.22,675.28,264.37Z"/><rect class="cls-13" x="358.53" y="300.41" width="46.62" height="100.28" rx="2"/><path class="cls-14" d="M524.7,95.25c-18.49.28-34.72.82-46.07,1.82-14.24,1.23-44.46,3.38-56.05,13.17C406.3,124,395.87,170.48,386,191c-6.13,12.74-25.51,34.86-26.59,49.44-2.51,33.53.53,114.33,8.07,123.17,5.27,6.18,80.61,6.37,157.23,5Z"/><path class="cls-23" d="M394.54,188.19H524.7V320.7H462.17s-10.24-45.94-20.56-66.93C428.9,227.86,394.54,188.19,394.54,188.19Z"/><path class="cls-24" d="M359.05,246l88.23,43.21,14.89,70s-80.33,22.49-97.07-35.77C362.26,313.55,359.05,246,359.05,246Z"/><path class="cls-25" d="M398.19,273.45s26.42,4.61,46,21.36c11.41,9.75,15.44,25.89,15.44,25.89h2.54l-12.45-45.94Z"/><path class="cls-7" d="M524.45,341.86h80.76a6,6,0,0,0,5.61-4.42l2.51-8.23c1.28-4.18-1.57-8.51-5.61-8.51H524.45Z"/><path class="cls-7" d="M524.7,341.86H442.81a6,6,0,0,1-5.73-4.85l-1.95-8.22c-1-4.1,1.86-8.09,5.73-8.09H524.7Z"/><rect class="cls-26" x="474.84" y="290.08" width="100.24" height="23.93"/><path class="cls-27" d="M358.59,243.17c-.5,6.34,21.83,3.89,48.94,10.73C439.68,262,524.61,279,524.61,279v-44.3c-37.64,0-86.88,2.8-105.35,0-19.95-3-49.63-5.4-57,0C362.24,234.68,359.08,236.81,358.59,243.17Z"/><rect class="cls-28" x="474.84" y="290.08" width="9.51" height="23.93"/><path class="cls-7" d="M624.34,119.16s-73.82-6-99.64-6.12h-.09c-25.82.12-99.66,6.12-99.66,6.12l-30.41,69h260.2Z"/><path class="cls-8" d="M447.28,274.46s-62.24,2.47-73.64-7.2c-5.28-4.5-7.69-18.94-4.28-23.38,4.24-5.53,18.88-3.85,25.18-3.47,10.58.61,42.29,7.38,42.29,7.38Z"/><path class="cls-29" d="M407.93,255.44c0,6.82-4.72,12.36-10.53,12.36s-10.53-5.54-10.53-12.36,4.7-12.33,10.53-12.33S407.93,248.62,407.93,255.44Z"/><path class="cls-30" d="M432.63,258.35c0,6.78-4.71,12.32-10.52,12.32s-10.54-5.54-10.54-12.32S416.29,246,422.11,246,432.63,251.51,432.63,258.35Z"/><path class="cls-31" d="M369.36,243.88s7.84-8.37,34.45-2.51,33,6.42,33,6.42l10.45,26.67a29.57,29.57,0,0,0-15.43-17.57C389.8,237.46,369.36,243.88,369.36,243.88Z"/><path class="cls-32" d="M374,264.37c-3.83-3.25-6.1-11.66-5.8-17.78-1.45,5.94.92,16.86,5.4,20.67,11.4,9.67,73.64,7.2,73.64,7.2l-1.1-2.8C437,272,384.45,273.22,374,264.37Z"/><path class="cls-8" d="M523,114.51h.1c25.81.14,99.64,6.13,99.64,6.13l29.75,67.55h2.23l-30.4-69s-73.82-6-99.64-6.12h-.09c-25.82.12-99.66,6.12-99.66,6.12l-.62,1.39C433,119.85,498.93,114.65,523,114.51Z"/><path class="cls-8" d="M524.7,245H472c-4.46,0-8.09,4-8.09,8.85v16.32c0,4.88,3.59,8.84,8.05,8.85,15.24.05,47.25.13,52.7,0,5.45.16,37.45.08,52.68,0,4.46,0,8-4,8-8.85V253.84c0-4.89-3.62-8.85-8.09-8.85Z"/><path class="cls-33" d="M619.21,337.41l16.57-15.8a27.13,27.13,0,0,1,18.75-7.69H670a2.53,2.53,0,0,1,2.1,3.62l-2.51,5.83c-4.86,11.28-15.24,18.49-26.65,18.49H620.74C618.59,341.86,617.59,339,619.21,337.41Z"/><path class="cls-33" d="M429.47,337.41l-16.57-15.8a27.13,27.13,0,0,0-18.75-7.69H378.68a2.53,2.53,0,0,0-2.09,3.62l2.51,5.83c4.86,11.28,15.24,18.49,26.65,18.49h22.19C430.09,341.86,431.08,339,429.47,337.41Z"/><path class="cls-34" d="M947.82,169.78c4.56,4.48,2.53,9.94-1.79,14.55S913.27,208.81,910.82,210c-1.79.85-7-9.93-5.54-12.56,1.62-2.92,22.86-22.92,27-26S942.47,164.53,947.82,169.78Z"/><path class="cls-35" d="M942.58,169.24c-2.32-.37-11.9,1.76-15.08,5.16-4.49,4.83-13.72,13.28-13.72,13.28a24.31,24.31,0,0,0,5,9.48c4.44,5.13,8.89,6.25,8.89,6.25s19.1-17.88,20.89-23.14C949.07,178.7,949,170.25,942.58,169.24Z"/><path class="cls-36" d="M955,143.85s.76,19.32,1.79,20.25c3.19,2.92,14.8,5.38,17,10.45,2.63,6.15-11.81,33.74-13.7,42.86s2,23.25,3.28,32.19-24.47,19.77-25.42,19.77-9.22-8.47-10.79-11.4,0-25.85,0-31.7-1.24-26.35-1.48-27.69a44.45,44.45,0,0,1,.82-17.91c.32-1.89.23-5.06,1.09-6.27,1.74-2.41,11.36-5.58,11.51-6.79s1.47-18,1.47-18Z"/><path class="cls-37" d="M956.75,164.1l-15.51,10.12L939,167.61S928.82,172,927.5,174.4s-2,7.63-2.38,9.57-.69,10.9,0,18.66c.4,4.54.3,10.54.93,18.28.54,6.63-.13,23.11-.13,23.11s5.78.26,14.74-.22c10.37-.54,20.85-2.28,21.31-2.7,2-1.79-.76-19.37-.39-21.31s13.12-35.6,13.33-40a9.12,9.12,0,0,0-4.92-9C966.94,169.14,956.75,164.1,956.75,164.1Z"/><path class="cls-38" d="M968.47,170s10.1,6.13.07,14.6c-4.33,3.66-25,9.32-28.93,10.62-13.93,4.63,7.53,38.41,9.17,41a12.49,12.49,0,0,1,1.62,6l10.6-.76c4.15.9.63-21.8,2.22-26.51s11.69-31.6,11.69-35.15C974.91,171.9,968.47,170,968.47,170Z"/><polygon class="cls-34" points="939.91 156.9 955.6 150.75 955.97 160.9 951.13 164.1 939.91 156.9"/><path class="cls-36" d="M934.07,126.91c3.41-4.51,14.47-9.83,21.15-2.41s5.23,16,2.82,21.48a20.33,20.33,0,0,1-8.22,9.77c-.87.6-9.13,3.48-10.9,3.1-1.21-.26-3.26-9.34-3.6-9.25a1.53,1.53,0,0,1-1.48-1.06c-.21-1.08,0-7.87-.3-8.53S930.16,132.07,934.07,126.91Z"/><path class="cls-39" d="M932.24,131.36s6-4.94,15,1.85c1.94,1.46-.39,9.27.12,9.86s5.69-6.32,5.57-5.45c-1.26,8.82,1.86,13.11,2.58,13,2.16-.16,7.27-13.11,2.77-22.29s-14.09-8.71-16.29-7.85S933,123,932.24,131.36Z"/><path class="cls-36" d="M949.37,140.07c-.41,2.81-.31,6.5,1.08,6.73s2.86-1.86,3.27-4.67-.37-5.27-1.76-5.51S949.79,137.26,949.37,140.07Z"/><rect class="cls-40" x="939.03" y="405.44" width="10.03" height="2.05" transform="translate(1888.09 812.93) rotate(180)"/><path class="cls-40" d="M948.67,391a20.39,20.39,0,0,1,2.33,7.7c.16,2.16-1,6.72-2.32,6.72a87.8,87.8,0,0,0-12.24.75c-3.92.57-5.38,3-15.38,3-2.92,0-8.08-.2-8.08-1.51,0-5.66,9.6-3.65,12.65-6.72,7.71-7.77,12.84-9.65,12.84-9.65S948.4,390.61,948.67,391Z"/><polygon class="cls-40" points="952.49 411.27 962.5 410.58 962.38 408.47 952.36 409.16 952.49 411.27"/><path class="cls-40" d="M961.11,393.64a21.38,21.38,0,0,1,2.79,7.78c.29,2.21-.61,7-1.91,7.08a86.22,86.22,0,0,0-12.17,1.6c-3.87.87-5.18,3.5-15.17,4.16-2.91.19-8.14.35-8.14-1,0-6.79,9.36-4.42,12.21-7.79,7.22-8.54,12.23-10.82,12.23-10.82S960.81,393.23,961.11,393.64Z"/><path class="cls-41" d="M944.08,242.67s13.19,13.46,13.8,19.83-5,26.75-7,42.79-3.22,19.27-2.72,23.06,4.84,19.12,4.29,29.32S950,394.56,950,394.56a24.07,24.07,0,0,1-7.56,1.87c-4.81.51-8.15-4-8.15-4s-3.86-59.61-4.47-65.9c-.4-4.07-3.44-32.15-4.37-55.05-.3-7.37.46-24.4.46-27.44Z"/><path class="cls-42" d="M962.84,241.3s3.32,9.53,3.22,17.43c-.08,6.4-1.76,18.15-3.75,34.19s-2.19,30.93-1.69,34.71,4.63,19.82,4.57,30c-.06,12,.87,39.66.87,39.66a44.3,44.3,0,0,1-9.15,2.06c-4.81.51-11.22-1-11.22-1S941.13,334.91,939,329c-3.46-9.37-4-38.91-6.38-59.06-1-8.12-2.76-26.26-2.76-26.26Z"/><path class="cls-42" d="M956.91,239.6l6.79-26s2.34,23.18-.58,25.57A5.64,5.64,0,0,1,956.91,239.6Z"/><polygon class="cls-38" points="941.92 170.21 941.24 174.22 949.41 168.95 941.92 170.21"/><polygon class="cls-43" points="958.88 165.15 955.97 160.9 941.92 170.21 944.15 175.69 958.88 165.15"/><polygon class="cls-38" points="941.24 174.22 939.95 169.24 937.98 170.91 941.24 174.22"/><polygon class="cls-44" points="939.95 169.24 936.61 173.41 936.1 168.95 938.89 166.02 939.95 169.24"/><path class="cls-42" d="M926,241.3c-5-5.63-1.33-50.94-1.33-50.94l21.39,1.79,4.53,47.77S931.06,247,926,241.3Z"/><path class="cls-45" d="M925.23,239.92l.65,6.12a186.47,186.47,0,0,0,25.63,0c12.45-1,12.19-1.95,12.19-1.95l-.58-5s-3.8.4-12.51.78C942.14,240.28,925.23,239.92,925.23,239.92Z"/><polygon class="cls-41" points="950.61 239.92 953.6 260.15 956.91 239.6 950.61 239.92"/><path class="cls-42" d="M946.08,192.15c.52-4.43,6.81-23.2,18.51-22.91a24.71,24.71,0,0,1,3.88.75l-6.71-3.4s-2.65-1.13-7.93,3.13-11.59,14.22-12.37,22S945.45,197.46,946.08,192.15Z"/><path class="cls-42" d="M924.69,190.36s1-16.14,6.12-18.63A27.14,27.14,0,0,0,934,170s-3.79,7.77-4.64,14.23-1.11,11.05-3.05,11S924.69,190.36,924.69,190.36Z"/><path class="cls-36" d="M970,175.93c5.92,1.71,6.47,7.44,4.64,13.53s-19.18,39.76-21,40.47-10-2.92-10.22-5.91,11.28-34.54,13.6-39.25S963,173.92,970,175.93Z"/><path class="cls-44" d="M968.14,172.24c-2.28.54-9,5.62-10.87,10-2.65,6.25-10.67,22.08-10.67,22.08a22.29,22.29,0,0,0,7.71,6.95c5.81,3.07,10.34,2.41,10.34,2.41s12.08-24.11,12.07-29.72C976.71,182.32,974.47,170.71,968.14,172.24Z"/><path class="cls-36" d="M954.41,225.33c3.09,6.47-9.89,12.39-16.35,14.94s-26,7.92-26,7.92l-2.87-7.37a185.64,185.64,0,0,1,32.42-19.72C943.44,220.28,951.28,218.76,954.41,225.33Z"/><polygon class="cls-37" points="910.16 239.26 919.47 233.56 923.45 244.99 913.77 247.84 910.16 239.26"/><path class="cls-34" d="M914.91,202.3c2.57,5.49-10.09,11.87-16.53,14.1s-25.81,6.66-25.81,6.66l-2.63-7.47a277.15,277.15,0,0,1,33.39-18.38C905.88,196.05,911.12,194.19,914.91,202.3Z"/><path class="cls-38" d="M861,229.54h0a1.5,1.5,0,0,1,.43-1.94l4.73-3.15a1.23,1.23,0,0,1,1.78.47h0a1.5,1.5,0,0,1-.43,1.94L862.76,230A1.23,1.23,0,0,1,861,229.54Z"/><path class="cls-38" d="M859.53,227.41h0a1.51,1.51,0,0,1,.44-1.94l4.72-3.15a1.24,1.24,0,0,1,1.78.48h0a1.51,1.51,0,0,1-.44,1.94l-4.72,3.15A1.24,1.24,0,0,1,859.53,227.41Z"/><path class="cls-38" d="M858.22,225.24h0a1.49,1.49,0,0,1,.44-1.94l4.72-3.15a1.23,1.23,0,0,1,1.78.47h0a1.5,1.5,0,0,1-.44,1.94L860,225.72A1.25,1.25,0,0,1,858.22,225.24Z"/><path class="cls-38" d="M857.15,223h0a1.5,1.5,0,0,1,.43-1.94l4.73-3.14a1.23,1.23,0,0,1,1.78.47h0a1.5,1.5,0,0,1-.43,1.94l-4.73,3.15A1.24,1.24,0,0,1,857.15,223Z"/><path class="cls-38" d="M874.69,213.48s-9.08,1.3-10.71,2.1-6.8,5.94-6.8,5.94,3,1,3.65,2.58,1.93,5.92,1.93,5.92,5.82-1.87,8.14-3.64a29,29,0,0,0,4.22-4.09Z"/><polygon class="cls-38" points="870.95 214.06 880.44 208.74 884.03 220.33 874.26 222.78 870.95 214.06"/><path class="cls-42" d="M959.26,130.2s-2.86-13-15.4-11.25-12.34,16-12.34,16a81.14,81.14,0,0,0,16.22-.69C957.06,133,959.26,130.2,959.26,130.2Z"/><path class="cls-45" d="M951.82,133.5s-24.16,7.4-24.52,7.21a26.54,26.54,0,0,0-2.73-1.63c-.74-.27-1.7.66-2,.19s9-5.56,9-5.56,5.23.61,7.81.83S951.68,132.59,951.82,133.5Z"/><path class="cls-37" d="M915.31,247.29s-4,3.85-7.22,1.45-4.8-7-5.35-8c-2.27-4.43-7.23-7-9-9.44s-.76-3.7.06-3c4.62,3.75,8.23,4.59,10.13,6.5s10.23,7,10.23,7Z"/><polygon class="cls-46" points="803.26 191.15 784.86 191.15 784.86 214.85 824.79 228.29 803.26 191.15"/><rect class="cls-41" x="778.77" y="145.64" width="6.54" height="83.88"/><polygon class="cls-47" points="785.31 168.75 787.56 168.75 786.09 145.64 785.31 145.64 785.31 168.75"/><polygon class="cls-46" points="788.25 187.43 791.84 187.21 787.92 115.13 784.34 115.37 788.25 187.43"/><polygon class="cls-48" points="790.34 187.13 791.57 187.05 787.67 115.25 786.43 115.33 790.34 187.13"/><polygon class="cls-42" points="796.42 191.15 784.86 191.15 784.86 214.85 815.09 225.03 796.42 191.15"/><polygon class="cls-42" points="878.34 414.38 784.86 414.38 784.86 214.85 878.34 246.32 878.34 414.38"/><path class="cls-41" d="M784.86,191.15v154l93.48,38.34v-16.8s-47.65-12.56-64.89-54.74S791.6,191.15,791.6,191.15Z"/><ellipse class="cls-40" cx="848.86" cy="284.35" rx="52.48" ry="57.39"/><ellipse cx="848.86" cy="283.66" rx="39.63" ry="43.34"/><ellipse class="cls-8" cx="848.86" cy="284.37" rx="36.55" ry="39.97"/><path class="cls-49" d="M811.58,284.37c0,22.51,16.69,40.77,37.28,40.77s37.28-18.26,37.28-40.77-16.69-40.77-37.28-40.77S811.58,261.85,811.58,284.37Zm9.09-.52c0-17,12.62-30.83,28.19-30.83s28.19,13.8,28.19,30.83-12.62,30.83-28.19,30.83S820.67,300.88,820.67,283.85Z"/><path class="cls-50" d="M848.86,243.55c-8,.1-4.81,34.7-4.81,34.7s-27.94-14.72-30.45-6.68,28.09,15.26,28.09,15.26-20.84,24.94-14.62,30.06,22.56-23.79,22.56-23.79,14.85,28.58,21,23.79-13.59-29.47-13.59-29.47,29.57-7.92,27.06-15.85-29.88,5.8-29.88,5.8S856.7,243.46,848.86,243.55Z"/><ellipse class="cls-51" cx="848.86" cy="284.37" rx="12.76" ry="13.95"/><path class="cls-8" d="M852.08,276.47a2.14,2.14,0,1,0,2.13-2.33A2.25,2.25,0,0,0,852.08,276.47Z"/><path class="cls-8" d="M841.08,276.47a2.14,2.14,0,1,0,2.13-2.33A2.25,2.25,0,0,0,841.08,276.47Z"/><path class="cls-8" d="M838,286.93a2.14,2.14,0,1,0,2.13-2.33A2.24,2.24,0,0,0,838,286.93Z"/><path class="cls-8" d="M855.43,286.93a2.14,2.14,0,1,0,2.13-2.33A2.24,2.24,0,0,0,855.43,286.93Z"/><path class="cls-8" d="M847.06,294a2.14,2.14,0,1,0,2.13-2.33A2.23,2.23,0,0,0,847.06,294Z"/><path class="cls-52" d="M805,361.22C784,347.63,770,322.63,770,294c0-43.1,31.95-78,71.36-78,36.2,0,66.08,29.48,70.72,67.68h7.11c-4.68-42.47-37.73-75.39-77.83-75.39-43.3,0-78.41,38.39-78.41,85.75,0,33,17.1,61.7,42.13,76Z"/><polygon class="cls-45" points="897.61 414.38 778.44 414.38 778.44 331.14 897.61 393.56 897.61 414.38"/><rect class="cls-44" x="764.23" y="281.6" width="156.11" height="5.49"/><polygon class="cls-35" points="838.1 291.63 766.6 307.25 764.94 298.17 836.44 282.55 838.1 291.63"/><polygon class="cls-40" points="848.86 283.66 836.44 282.55 838.1 291.63 849.19 285.38 848.86 283.66"/><ellipse class="cls-40" cx="848.86" cy="284.37" rx="6.05" ry="6.61"/><ellipse class="cls-40" cx="767.56" cy="302.96" rx="6.05" ry="6.61"/><rect class="cls-40" x="910.28" y="278.8" width="10.06" height="12.18"/><polygon class="cls-40" points="761.51 293.27 771.26 294.78 774.24 271.84 764.49 270.33 761.51 293.27"/><path class="cls-34" d="M165.92,201c-3.41-7-15.66,2.08-21.65,6.73s-24.21,20.35-24.21,20.35l5,5.68s19.34-6.15,36.61-17.79C165.7,213.26,169.39,208.15,165.92,201Z"/><path class="cls-34" d="M196.89,169.12c5.42,4.37,3.73,10.58-.54,16.13s-31.48,29-33.62,28.92-9.14-7.41-8.2-10.62,21.3-27,25.54-30.86S190.53,164,196.89,169.12Z"/><path class="cls-35" d="M186.89,163.54c-2.56-.13-5.24,5-8.38,9.05-4.44,5.8-17.1,20.08-17.1,20.08a26.24,26.24,0,0,0,6.36,9.78c5.36,5.09,10.34,5.8,10.34,5.8s19.13-21.78,20.58-27.74C199.13,178.73,194,163.91,186.89,163.54Z"/><path class="cls-36" d="M190.92,130.82s9.83,17.78,10.75,19c3.47,4.63,5.79,3.83,10.18,7.67,5.32,4.66,17.84,29.65,23.76,46,3.45,9.55,8.06,32.33,7.4,42.25-.89,13.26-20.55,16.43-21.48,16.93s-8.49-5.94-11.34-8-1.45-24.33-4-30.1-19.06-23.08-19.89-24.28c-5.56-8-6.61-16-7.14-18.09s-2-5.1-1.7-6.76c.63-3.29,8.71-11.53,8.33-12.8s-6.53-18.49-6.53-18.49Z"/><path class="cls-37" d="M201.67,149.84l-13.19,17.83-2.73-5s-8.1,9.73-8.33,12.8,1.46,8.56,1.89,10.71,4.15,11.1,8.28,18.38c2.41,4.27,9,8.35,13.1,15.64C204.16,226.47,203,237,203,237a52,52,0,0,1,18.23,0c11.72,2.16,21.22-2.73,21.49-3.39,1.18-2.82-7.28-33.3-7.78-35.4s-11.56-28-14.07-32c-3.64-5.8-8-11.82-14-13.87A18.16,18.16,0,0,1,201.67,149.84Z"/><path class="cls-38" d="M202.82,151.23s6.51,8.45.38,22.12c-2.65,5.9-1.35,12.9-4.62,16.24-11.67,12,13.31,46.69,16.07,48.33s11.59-.19,11.59-.19l16.43-4.18c4.5-1.32-7.5-31.2-8-36.69s-11.3-25.89-13-29.29C213.48,151.66,202.82,151.23,202.82,151.23Z"/><polygon class="cls-34" points="181.88 151.67 194.62 137.28 199.49 147.09 196.14 152.82 181.88 151.67"/><path class="cls-36" d="M166.23,125.39c2.1-6,11.9-15.79,21.24-10.63s10.58,14.6,9.84,21.27c-.57,5.21-1.88,8.62-5.41,13.33-.71,1-8.39,7.13-10.35,7.42-1.35.2-6.4-8.47-6.72-8.25A1.59,1.59,0,0,1,173,148c-.57-1-2.5-8.2-3-8.76S163.82,132.27,166.23,125.39Z"/><path class="cls-39" d="M165.76,130.74s4.6-7.43,16.18-3.84c2.5.78,2.57,9.8,3.3,10.21s3.89-8.76,4-7.81c1.53,9.67,6.16,12.93,6.88,12.6,2.2-1,3.35-16.45-4.27-24.27s-17.48-3.65-19.49-1.91S163.84,121.71,165.76,130.74Z"/><path class="cls-36" d="M186.39,133.21c.47,3.09,1.77,6.89,3.29,6.59s2.37-3,1.9-6.11-2.09-5.35-3.61-5.06S185.92,130.13,186.39,133.21Z"/><polygon points="257.4 413.76 267.66 409.35 266.91 407.25 256.65 411.67 257.4 413.76"/><path d="M261.21,392.68c2.08,1.48,4.42,5.07,5.21,6.85,1,2.14,1.43,7.32.1,7.89a102.26,102.26,0,0,0-12.24,6.15c-3.79,2.31-1.33,4.06-11.57,8.43-3,1.27-11.65,1.45-12.13.11-2.08-5.79,8.74-4.65,10.73-9.13,5-11.33,9.58-15.5,9.58-15.5S260.78,392.38,261.21,392.68Z"/><polygon class="cls-40" points="222.3 425.41 233.32 425.77 233.38 423.45 222.36 423.09 222.3 425.41"/><path class="cls-40" d="M233.37,407.08a23.83,23.83,0,0,1,2.34,8.82c.1,2.46-1.32,7.59-2.75,7.54a93.93,93.93,0,0,0-13.47.4c-4.31.51-6,3.25-17,2.86-3.2-.12-8.94-.53-8.81-2,.63-7.43,10.64-3.79,14.08-7.16,8.69-8.53,14.38-10.47,14.38-10.47S233.09,406.6,233.37,407.08Z"/><path class="cls-41" d="M219,237.49s17.36,10.47,19.57,17.08,2.77,26.3,4.58,44,2.46,23.06,3.92,26.94,9.51,20.93,11.42,32,9.16,38.83,9.16,38.83-6.54,3.11-11.53,5.06-10.85-1.42-10.85-1.42S226.56,337.51,224.36,331c-1.41-4.22-11.54-33.25-18.14-57.38-2.12-7.76-5.48-26.13-6.23-29.37Z"/><path class="cls-42" d="M243.64,238.25s3,10.72,2.3,19.37c-.54,7-3.22,19.74-6.54,37.15s-4.58,33.71-4.3,37.9S238.76,354.78,238,366c-.93,13.15-1.86,43.53-1.86,43.53A48.6,48.6,0,0,1,225.94,411c-5.3.15-12.22-2.08-12.22-2.08s-.5-69.92-2.46-76.55c-3.13-10.57-1.61-43-2.81-65.26-.48-9-1.16-29-1.16-29Z"/><path class="cls-42" d="M237.07,235.53l-2.43-38.67a197.81,197.81,0,0,1,8.86,31c.24,1.28,1.17,4.79-.83,5.71A41.36,41.36,0,0,1,237.07,235.53Z"/><polygon class="cls-38" points="189.77 163.72 188.48 167.68 196.59 158.5 189.77 163.72"/><polygon class="cls-38" points="188.48 167.68 185.75 162.7 184.99 165.6 188.48 167.68"/><polygon class="cls-44" points="186.16 163.44 185.53 168.3 183.47 165.57 185.26 161.26 186.16 163.44"/><path class="cls-42" d="M199.68,237.49c-2.08-.43-.92-8-3.09-12.83-5.91-13.22-14.87-31.93-14.87-31.93l21.88-9.59L230.48,236S217.46,241.15,199.68,237.49Z"/><path class="cls-45" d="M199.68,237.49l.34,6.86s17.37,1.31,30.82-1.6,13.06-3.89,13.06-3.89l-1.23-5.31s-4.09,1-13.55,2.65C219.93,237.82,199.68,237.49,199.68,237.49Z"/><polygon class="cls-41" points="230.48 235.96 234.09 263.34 237.18 234.53 230.48 235.96"/><path class="cls-42" d="M200.38,185.05c-1.45-4.64-1.7-31.7,13.94-27.75l-5.06-4s-6.13-2.1-11.2,7.37a33.32,33.32,0,0,0-2.41,26.41C198.35,195.24,202.12,190.61,200.38,185.05Z"/><path class="cls-42" d="M181.72,192.73s-6.15-16.45-2.23-21.62a35.75,35.75,0,0,0,2.35-3.38s-.3,9.67,1.73,16.48,3.81,11.49,1.87,12.45S181.72,192.73,181.72,192.73Z"/><path class="cls-36" d="M209.07,163.6c6.64,1.23,7.76,7.44,6.32,14.3s-18.54,48.73-20.45,49.7-11.21-2.1-11.72-5.35,10.36-42.15,12.47-47.55S201.29,162.17,209.07,163.6Z"/><path class="cls-44" d="M206.82,160.81c-3.35.56-9.34,7.14-11,12.17-2.33,7.13-9.66,25.33-9.66,25.33a23.93,23.93,0,0,0,9.07,6.76c6.64,2.73,11.54,1.5,11.54,1.5s9.93-27.69,10.48-33.83C217.65,168.52,214.92,159.46,206.82,160.81Z"/><path class="cls-36" d="M196,224c1.25,7.9-14.73,11.07-22.12,11.87s-29.13.73-29.13.73l-1.11-7.6s19.43-6.74,39.34-11.74C185,216.78,194,211.83,196,224Z"/><path class="cls-35" d="M127.21,229.59s.05,6.18-4,7.56-8.92-.71-10.15-.92c-5.08-.87-10.19,3.34-13.32,3.3s-3.23-1.81-2.13-2.14c6.14-1.83,9.06-5.08,11.88-5.58s12.57-5,12.57-5Z"/><path class="cls-35" d="M126.05,233.58s0,3.17-4.66,5.17c-2.57,1.09-6-.24-8.23.49s-1.86-.6-1.72-1,2.93-1.23,4.13-1.8S120.74,231.21,126.05,233.58Z"/><polygon class="cls-43" points="204.24 149.73 199.49 147.09 189.77 163.72 194.33 168.98 204.24 149.73"/><path class="cls-37" d="M144.39,228.75l-10.06,4.13s-1.73,6.38-1.56,7.76,2.93,6.74,3.28,7.54,1.29,1.54,1.61,1.28-.51-3.57,2.22-6.11,5.2-4.26,6.39-6.29C148.9,232.53,144.39,228.75,144.39,228.75Z"/><path class="cls-37" d="M140.72,233.31s-3.82,4.09-3.49,5.13,1.23,7.17,1.31,7.86.2,1.63,1.52-.15.66-4.58,1.29-5,3.88-.74,5.45-3.21a5.27,5.27,0,0,0,.27-5.48C146.59,231.67,141.43,231.07,140.72,233.31Z"/><polygon class="cls-37" points="146.8 237.97 159.22 237.85 157.36 224.16 143.87 228.98 146.8 237.97"/><polygon class="cls-35" points="137.21 229.1 130.85 218.88 120.06 228.1 126.05 233.58 137.21 229.1"/><path class="cls-42" d="M194,120.24s-6.57-12.91-19.48-7-8.81,21-8.81,21a91.23,91.23,0,0,0,17.1-6C192.37,123.89,194,120.24,194,120.24Z"/><path class="cls-45" d="M186.94,126.16s-23.74,15.73-24.18,15.64a27.57,27.57,0,0,0-3.36-.85c-.86,0-1.63,1.25-2,.83s8.06-8.83,8.06-8.83,5.74-1,8.55-1.65S186.54,125.25,186.94,126.16Z"/><rect class="cls-40" x="104.31" y="208.56" width="40.25" height="101.95" rx="8.44" transform="translate(383.96 135.1) rotate(90)"/><rect x="122.99" y="208.56" width="2.89" height="101.95" transform="translate(383.96 135.1) rotate(90)"/><rect x="123.82" y="216" width="1.22" height="101.95" transform="translate(391.41 142.54) rotate(90)"/><rect x="123.82" y="220.7" width="1.22" height="101.95" transform="translate(396.11 147.24) rotate(90)"/><rect x="123.82" y="196.64" width="1.22" height="101.95" transform="translate(372.04 123.18) rotate(90)"/><rect x="123.82" y="201.34" width="1.22" height="101.95" transform="translate(376.74 127.88) rotate(90)"/><path class="cls-53" d="M175.33,271.7a7.75,7.75,0,0,1-1.18.13H88.34c-4.44,0-8.07-4-8.07-8.83V240.4a7.84,7.84,0,0,1,.08-.86,8.61,8.61,0,0,0-6.89,8.69v22.6c0,4.86,3.63,8.83,8.07,8.83h85.81C171.51,279.66,174.92,276.14,175.33,271.7Z"/><rect class="cls-54" x="90.41" y="279.66" width="68.05" height="5.51"/><rect class="cls-52" x="102.99" y="285.17" width="42.82" height="12.28"/><polygon class="cls-55" points="145.8 285.17 102.98 285.17 102.98 297.45 145.8 297.45 108.88 294.02 108.88 290.55 145.8 285.17"/><polygon class="cls-56" points="187.5 427.11 32.68 427.11 32.68 403.84 25.41 396.13 25.41 297.15 194.77 297.15 194.77 396.13 187.5 403.84 187.5 427.11"/><rect class="cls-52" x="25.42" y="396.13" width="169.35" height="7.71"/><rect class="cls-52" x="70.8" y="156.47" width="53.64" height="9.47"/><rect class="cls-56" x="37.59" y="157.28" width="22.85" height="180.48"/><rect class="cls-56" x="30.39" y="152.5" width="55.63" height="18.13"/><rect class="cls-52" x="77.94" y="165.88" width="92.99" height="8.66" transform="translate(-45.78 294.65) rotate(-90)"/><rect class="cls-52" x="77.9" y="190.38" width="92.99" height="5.03" transform="translate(-68.5 317.28) rotate(-90)"/><rect class="cls-56" x="116.11" y="142.56" width="16.65" height="43.68"/><polygon class="cls-52" points="110.09 239.38 121.88 232.98 126.91 232.98 126.91 239.38 110.09 239.38"/><rect class="cls-35" x="118.62" y="119.95" width="11.64" height="8.83"/><rect class="cls-54" x="110.09" y="152.5" width="6.02" height="16.89"/><polygon class="cls-57" points="60.43 170.63 43.35 177.19 43.35 289.89 60.43 297.45 37.59 297.45 37.59 170.63 60.43 170.63"/><rect class="cls-57" x="32.68" y="403.84" width="154.82" height="23.27"/><polygon class="cls-58" points="187.5 403.84 32.68 403.84 32.68 416.8 187.5 407.85 187.5 403.84"/><path class="cls-34" d="M637.24,271.74c-7-4.86-14.51,11.8-18.06,20.15s-13.53,35.3-13.53,35.3l7.9,2.56s16.05-18.14,27.2-40.44C643.38,284.06,644.39,276.69,637.24,271.74Z"/><path class="cls-34" d="M651.5,220.76c7.66,1,9.21,8.21,7.84,16.39s-16.3,48.38-18.45,49.66-12.95-1.69-13.67-5.47,7.19-40.07,9.38-46.58S642.51,219.61,651.5,220.76Z"/><path class="cls-35" d="M638.65,221.42c-2.62,1.46-2.65,8.18-3.64,14.2-1.41,8.54-6.6,30.62-6.6,30.62A26.41,26.41,0,0,0,639.83,272c8,1.74,13.29-.65,13.29-.65s7.74-33.56,6.09-40.39C658.71,228.94,645.91,217.37,638.65,221.42Z"/><path class="cls-36" d="M629.31,179.42s18.25,13,19.77,13.76c5.69,2.89,7.72.79,14,2.36,7.62,1.91,31.94,20.85,45.52,34.52,7.92,8,23.07,28.95,26.91,39.55,5.13,14.17-13.7,28.16-14.44,29.18s-11.46-1.49-15.33-2.05-12.6-24.31-17.91-28.85-30.2-13.41-31.6-14.19c-9.37-5.19-14.14-13-15.62-14.76s-4.42-4.17-4.84-6.05c-.85-3.74,3.73-16.65,2.75-17.75s-15.17-15.52-15.17-15.52Z"/><path class="cls-37" d="M649.08,193.18l-5.47,25.6-5.09-3.64s-3.91,14.46-2.75,17.75,5.41,8,6.84,10,9.35,9.19,16.93,14.45c4.43,3.08,13.13,3.67,20.64,9,6.43,4.55,10,16,10,16a63.23,63.23,0,0,1,18.8-10c13.08-4.16,25.76-8.83,25.75-9.66-.08-3.56-27.82-35.94-29.3-37.84s-24.7-22.56-29.11-25.32c-6.41-4-13.7-7.81-20.83-6.65A19.85,19.85,0,0,1,649.08,193.18Z"/><path class="cls-38" d="M650.9,194s10.57,5.18,10.48,22.62c0,7.53,4.49,14,2.65,19.28-6.59,18.71,35,40.9,38.63,41.08s11.87-6.51,11.87-6.51l19.52-6c4-3.81-26.45-35.34-29.5-40.71s-23.47-20.54-26.82-23.11C662.09,188.61,650.9,194,650.9,194Z"/><polygon class="cls-34" points="629.5 205.87 636.07 184.07 645.57 191.53 644.73 199.27 629.5 205.87"/><path class="cls-36" d="M601.36,187.3c-.57-7.34,5.06-22.78,17-22.56S636,174,638.28,181.32c1.78,5.68,2,9.91.51,16.7-.31,1.38-5.41,11.93-7.3,13.3-1.3.94-10.47-5.24-10.7-4.84a1.83,1.83,0,0,1-2.18.48c-1.06-.77-6.32-7.1-7.15-7.38S602,195.71,601.36,187.3Z"/><path class="cls-39" d="M603.32,193.07s1.35-10.17,14.94-12.79c2.92-.56,7.12,8.71,8.06,8.74s0-11.16.6-10.27c6,9.14,12.25,10,12.85,9.24,1.81-2.24-4-18.79-15.49-22.7s-19.69,5.77-21,8.66S597.21,184.8,603.32,193.07Z"/><path class="cls-36" d="M625.72,184.37c1.9,2.92,5,6.13,6.41,5s1.06-4.42-.83-7.35-4.6-4.38-6-3.24S623.83,181.44,625.72,184.37Z"/><polygon points="686.8 475.39 699.42 474.78 699.32 472.2 686.7 472.81 686.8 475.39"/><path d="M698.09,454.09c1.75,2.45,3.07,7.29,3.32,9.54.31,2.71-.94,8.52-2.58,8.6a112,112,0,0,0-15.36,1.68c-4.89,1-6.6,4.15-19.19,4.72-3.67.17-10.16.24-10.23-1.4-.29-7.13,11.89-5.18,15.56-9.23,9.3-10.24,15.66-12.91,15.66-12.91S697.73,453.58,698.09,454.09Z"/><rect class="cls-40" x="749.34" y="479.44" width="12.63" height="2.66" transform="translate(-2.4 3.79) rotate(-0.29)"/><path class="cls-40" d="M761.36,460.66c1.67,2.61,2.82,7.67,3,10,.21,2.81-1.24,8.74-2.87,8.75a106.34,106.34,0,0,0-15.41,1c-4.92.77-6.74,4-19.34,4-3.68,0-10.27-.21-10.17-1.91.45-8.54,12-4.81,15.86-8.82,9.65-10.15,16.1-12.62,16.1-12.62S761,460.12,761.36,460.66Z"/><path class="cls-41" d="M713.7,269.6s14.72,18.93,14.64,27S721.57,326,717,345.74s-5.9,25.81-5.78,30.62,2.45,26.65.4,39.32S707,461.36,707,461.36s-8.17.44-14.25.31-11.1-6.33-11.1-6.33,3.05-75.17,3.12-83.13c0-5.15,0-40.76,1.81-69.55.6-9.26,3.81-30.44,4.21-34.25Z"/><path class="cls-42" d="M736.73,266.07s5.57,11.29,6.63,21.17c.87,8,.53,23,.44,43.35s1.92,39,3.11,43.65,8.74,23.91,10.21,36.67c1.72,15,7,49.35,7,49.35A56.78,56.78,0,0,1,753,464.48c-5.92,1.5-14.16.72-14.16.72s-15.21-78.39-18.79-85.33c-5.73-11.09-10.81-47.87-16.82-72.59-2.43-10-7.38-32.29-7.38-32.29Z"/><path class="cls-42" d="M729.16,264.06,702,220.56s21.44,20.75,31.43,35.15c.83,1.2,3.39,4.31,1.75,6.35C733.14,264.58,729.16,264.06,729.16,264.06Z"/><polygon class="cls-38" points="643.13 213.99 643.61 218.78 647.79 204.89 643.13 213.99"/><polygon class="cls-38" points="643.61 218.78 638.52 215.14 639.06 218.54 643.61 218.78"/><polygon class="cls-44" points="639.28 215.68 640.85 221.03 637.47 219.34 637.36 213.91 639.28 215.68"/><path class="cls-42" d="M687.28,275.15c-2.42.11-11.73-2.33-16.19-6.16-12.13-10.42-23-20.68-23-20.68l18.2-21.82,55.56,40.57A101.74,101.74,0,0,1,687.28,275.15Z"/><path class="cls-45" d="M687.28,275.15l1.57,7.68s19.87-2.1,34.57-8.17,14.08-7.09,14.08-7.09l-2.3-5.75s-4.46,2-14.86,5.8C710.23,271.35,687.28,275.15,687.28,275.15Z"/><polygon class="cls-41" points="721.84 267.06 730.65 297.26 729.16 264.06 721.84 267.06"/><path class="cls-42" d="M663.82,230.21c-3.62-4-16.22-31.78,1.71-36.24l-7-1.32s-7.27,1.18-8.19,13.71c-.85,11.65,3.08,21.66,9.57,28.57S668.15,235,663.82,230.21Z"/><path class="cls-42" d="M648.07,248.31s-13.85-13.61-12.16-21.08a43,43,0,0,0,.87-4.77s4.11,10.13,9.31,16.06,9.17,9.77,7.61,11.82S648.07,248.31,648.07,248.31Z"/><path class="cls-36" d="M663,203.34c7.41-2.36,11.4,3.44,13,11.3s3.12,60.39,1.59,62.44S665.1,281,663.09,278s-8.55-49.14-8.84-55.86S654.31,206.1,663,203.34Z"/><path class="cls-44" d="M659.39,201.69c-3.19,2.4-6.37,12.46-5.77,18.55.86,8.62,1.6,31.4,1.6,31.4a25.1,25.1,0,0,0,12.44,2c8.1-.81,12.59-4.74,12.59-4.74s-2.39-34-4.62-40.63C674.09,203.73,667.13,195.87,659.39,201.69Z"/><path class="cls-36" d="M674.82,269.37c8.23,3,2.62,22.85-.63,31.65s-15.08,33.33-15.08,33.33l-7.87-3s4.07-25.74,10.07-51C661.93,277.7,662.1,264.72,674.82,269.37Z"/><path class="cls-34" d="M613.54,324.22s3.26,6.12-.08,10-9.24,4.83-10.58,5.38c-5.5,2.29-8.41,9.66-11.54,11.56s-4.15.2-3.23-.8c5.16-5.64,6.38-10.69,8.93-12.94S607,324.71,607,324.71Z"/><path class="cls-34" d="M614.46,328.91s1.66,3.15-2,8c-2,2.68-6.07,3.46-7.94,5.6s-2.15.55-2.2.11,2.27-3.05,3.17-4.36S607.94,329.85,614.46,328.91Z"/><path class="cls-36" d="M659.38,333.61s-.46,7.42-5.27,8.39-10-1.52-11.38-1.94c-5.67-1.74-12.22.84-15.78.34s-3.72-2.56-2.43-2.77c7.22-1.18,11.13-4,14.4-4.12s14.92-3.78,14.92-3.78Z"/><polygon class="cls-43" points="651.68 191.67 645.57 191.53 643.13 213.99 650.24 216.93 651.68 191.67"/><path class="cls-42" d="M630.08,168.32s-12.63-10.7-24.26,2.42-.78,27.51-.78,27.51a121.15,121.15,0,0,0,16.18-15.38C629.86,173.12,630.08,168.32,630.08,168.32Z"/><path class="cls-45" d="M624.87,178.41S605.52,207.85,605,208a33.75,33.75,0,0,0-4,.8c-1,.39-1.25,2.21-1.88,2s5.09-13.8,5.09-13.8,5.84-4.11,8.66-6.22S624.05,177.62,624.87,178.41Z"/><ellipse class="cls-40" cx="629.38" cy="411.63" rx="66.55" ry="72.77"/><ellipse cx="629.38" cy="410.76" rx="50.26" ry="54.96"/><ellipse class="cls-8" cx="629.38" cy="411.65" rx="46.35" ry="50.69"/><path class="cls-59" d="M629.38,360c-26.11,0-47.28,23.14-47.28,51.69s21.17,51.7,47.28,51.7,47.27-23.14,47.27-51.7S655.49,360,629.38,360Zm0,90.13c-19.74,0-35.75-17.5-35.75-39.09s16-39.09,35.75-39.09,35.74,17.5,35.74,39.09S649.12,450.09,629.38,450.09Z"/><path class="cls-60" d="M629.38,359.9c10.17.13,6.1,44,6.1,44s35.42-18.66,38.61-8.48-35.62,19.36-35.62,19.36S664.89,446.4,657,452.9s-28.61-30.17-28.61-30.17S609.57,459,601.75,452.9,619,415.53,619,415.53s-37.49-10-34.3-20.11,37.88,7.36,37.88,7.36S619.43,359.78,629.38,359.9Z"/><ellipse class="cls-61" cx="629.38" cy="411.65" rx="16.18" ry="17.69"/><path class="cls-8" d="M625.29,401.64a2.72,2.72,0,1,1-2.7-3A2.83,2.83,0,0,1,625.29,401.64Z"/><path class="cls-8" d="M639.24,401.64a2.72,2.72,0,1,1-2.7-3A2.83,2.83,0,0,1,639.24,401.64Z"/><ellipse class="cls-8" cx="640.41" cy="414.9" rx="2.7" ry="2.95"/><path class="cls-8" d="M621.05,414.9a2.72,2.72,0,1,1-2.7-2.95A2.83,2.83,0,0,1,621.05,414.9Z"/><path class="cls-8" d="M631.66,423.9a2.71,2.71,0,1,1-2.7-3A2.83,2.83,0,0,1,631.66,423.9Z"/><ellipse class="cls-62" cx="629.38" cy="411.65" rx="7.67" ry="8.39"/><path class="cls-36" d="M266.78,324.79l-9.09,12.39s1.79,8.57,2.81,10,7.36,5.42,8.24,6.05,2.39.77,2.6.23-2.7-3.67-1.07-8.63,3.44-8.82,3.6-12C274.21,325.64,266.78,324.79,266.78,324.79Z"/><path class="cls-36" d="M365,245.28c5.28-17.66,18.93-47.93,11-53.22-10.38-6.89-40.25-11.15-40.25-11.15v.56s-30.14,2.71-40.54,9.56c-8,5.26,5.85,37,11.08,54.71,1.26,4.25,1.09,23.26.59,40.11-.12,4.16-3.24,23.28-2.72,31.18.15,2.36,24.54,17,31.38,17.39v-.56c6.84-.36,31.27-14.93,31.43-17.28.54-7.91-2.52-27-2.64-31.19C363.83,268.53,363.72,249.52,365,245.28Z"/><path class="cls-36" d="M368.46,190.53c-5.49,2.92-6.33,13.82-.92,24.78s10.19,17.78,11.66,20.59,9.16,20.41,11.89,24.72,8.68,8.14,13,5.62c3.58-2.11,7.55-3.9,5.1-12.54S385.83,181.3,368.46,190.53Z"/><path class="cls-36" d="M348.2,175.69c-.68-3.36-2.37-20-2.37-20H335.74v.56l-10.09,0s-1.73,16.64-2.42,20-9,8.43-9,8.43l21.47,0v-.56l21.47,0S348.88,179.06,348.2,175.69Z"/><path class="cls-34" d="M347.52,171c-.63-5.1-1.38-12.36-1.62-14.62l-.65-.7h-9.51v.56l-10.09,0s-1.73,16.64-2.42,20-9,8.43-9,8.43h1c9.58-2.78,19.11-5.55,20.4-6,2.68-.84,11.87-7.7,11.87-7.7Z"/><path class="cls-36" d="M319.48,298.5c-12.32-.07-17.12,9.32-16.81,38.11s4.18,60,5.89,64.52,19.15,4.61,20.86,2,6.07-62.35,6.08-71.7S332.89,298.56,319.48,298.5Z"/><path class="cls-36" d="M320.23,424.19,317,424.1c-4.88-.14-8.78-4.62-8.66-10l.28-12c.13-5.35,4.23-9.61,9.12-9.48l3.24.1c4.89.13,8.79,4.62,8.67,10l-.28,12C329.22,420.06,325.12,424.32,320.23,424.19Z"/><path class="cls-36" d="M318.47,406.56c-3.76,0-13,1.34-12.52,28.19s10.86,63.63,10.86,63.63h8.89s4.41-49.69,4.44-59.23C330.22,417.47,330.36,406.58,318.47,406.56Z"/><path class="cls-36" d="M352,298.74c12.24-1.45,17.9,7.34,20.31,36s3.54,60.18,2.27,64.84-18.61,6.74-20.56,4.33-14-61.33-14.86-70.63S338.62,300.31,352,298.74Z"/><path class="cls-36" d="M365.06,423.85l3.26-.46c4.85-.69,8.29-5.6,7.66-10.92l-1.39-11.83c-.63-5.31-5.1-9.09-9.93-8.41l-3.27.46c-4.84.69-8.29,5.6-7.66,10.93l1.4,11.82C355.76,420.75,360.23,424.53,365.06,423.85Z"/><path class="cls-36" d="M365.18,406.11c3.74-.43,13.05-.13,15.11,26.63s-2,64.52-2,64.52l-8.84,1s-11.9-48.93-12.83-58.41C354.52,418.29,353.36,407.47,365.18,406.11Z"/><path class="cls-36" d="M300.17,190.63c5.9,1.76,8.55,12.31,5.09,24.16s-7,19.53-8,22.59-5.57,21.91-7.52,26.7-7.16,9.75-11.78,8.14c-3.87-1.35-8.08-2.32-7.12-11.3S281.54,185.06,300.17,190.63Z"/><path class="cls-41" d="M306.13,292.7s-4.46,23.72-5.16,36.62,5,69.3,5,75.51-.39,25.28-.06,44,4.7,55.51,4.7,55.51l21.89-.56s.14-79.05.16-91.47,2.84-77.87,2.84-77.87l.05-40.67Z"/><path class="cls-37" d="M378.57,192.41c-1.36-2.46-8.62-4.5-15.32-6.78a68.88,68.88,0,0,1-10.65-4.72l-3.72,2.16a24.6,24.6,0,0,1-26.41,0l-3.18-2a113,113,0,0,1-11.2,4.52c-6.7,2.26-14.18,4.15-15.33,6.73s10.77,53,12.11,57.25-2.15,34.22,1.26,43.18l29.36,1.05h.06l29.37-.95c2.7-10.26,0-39.47,1.34-43.74S380.83,196.52,378.57,192.41Z"/><path class="cls-41" d="M364.68,292s6.66,23.08,8.57,35.84,3.62,69.5,4.19,75.67,2.78,25.1,4.2,43.74S385,503.05,385,503.05L363.14,505s-10.35-78.62-11.54-91-16.19-77.5-16.19-77.5l.14-42.72Z"/><path class="cls-40" d="M312.91,504.26s-7.48,9.56-7.09,12.08c.22,1.44,3.38,6.64,9.11,7,4.36.29,11.46-4,12.57-4.18,2.57-.28,2.56-15.36,2.56-15.36Z"/><path class="cls-40" d="M381.9,503.33s8.34,8.66,8.19,11.22c-.09,1.45-2.73,7-8.4,8-4.3.78-11.78-2.74-12.9-2.74-2.58,0-4-15-4-15Z"/><path class="cls-42" d="M362.11,340.39c1.24,8.45,4.69,65.25,4.9,68.48s10.43,90.76,10.77,94.8l7.18-.62s-1.89-37.12-3.32-55.76-3.63-37.56-4.2-43.74-2.27-62.92-4.19-75.67S364.68,292,364.68,292l-17.35,1.33S360.88,331.94,362.11,340.39Z"/><path class="cls-42" d="M332.08,318.7c-4.06-7.83-14.92-5.19-15.63,3.77-.72,9.21-.91,15.59-.17,19.84,1.85,10.68,4.5,62.89,4.15,64.25s-.11,97.25-.11,97.25l.39.25,11.79-.3s.14-79.05.16-91.47,2.84-77.87,2.84-77.87v-3.55l.23-5.13Z"/><path class="cls-36" d="M402.53,253.46c4.92-.8,9.35,1.36,12.13,16.28s5.12,50.42,5.12,50.42l-7.95,1.3S400,293.28,398.16,285.25,389.66,255.57,402.53,253.46Z"/><path class="cls-36" d="M410.58,313.33s-3,8-3.29,10.53,1,11.69,1,13.73c0,3.4-6,11.06-3.92,11.37s10.4-6.79,10.4-6.79,6.48-9.79,6.23-13.81-1.49-11.43-1.49-11.43Z"/><path class="cls-36" d="M353.22,141.54c0,13.92-9.66,27.76-17.82,27.74-7.8,0-17.75-13.88-17.73-27.79s8-25.18,17.8-25.17S353.23,127.63,353.22,141.54Z"/><path class="cls-39" d="M317.66,144.27c-.78-1.51-3.43-8-2.85-10.85s3.71-9.21,4.75-11.1,10.28-6.92,11.66-7a33.26,33.26,0,0,1,8,0c2.88.51,7.95,2.66,9.1,5.19s4,5.43,4.94,7.45,2.54,7.2,2.31,7.95-1.51,7.07-1.62,7.57a13,13,0,0,1-.95,1.94s-4.78-13.3-4.89-14.56-24.35-1.68-25.85-.8S317.66,144.27,317.66,144.27Z"/><polygon class="cls-63" points="324.63 354.02 300.91 354.02 300.25 352.78 298.52 351.94 300.86 314.85 322.84 314.27 324.63 354.02"/><polygon class="cls-42" points="322.24 351.94 298.52 351.94 299.8 314.19 322.24 314.19 322.24 351.94"/><polygon class="cls-45" points="300.91 354.02 300.25 352.78 323.04 352.78 322.84 314.27 324.63 354.02 300.91 354.02"/><polygon class="cls-63" points="351.83 354.21 375.44 351.68 375.99 350.38 377.63 349.36 372 312.69 350.07 314.45 351.83 354.21"/><polygon class="cls-42" points="354.02 351.88 377.63 349.36 373 311.92 350.66 314.31 354.02 351.88"/><polygon class="cls-45" points="375.44 351.68 375.99 350.38 353.3 352.81 350.07 314.45 351.83 354.21 375.44 351.68"/><path class="cls-36" d="M278.57,260.59c-4.95-.48-9.26,2-11.22,17S265,328.3,265,328.3l8,.78s10.28-28.9,11.67-37S291.53,261.85,278.57,260.59Z"/><polygon class="cls-42" points="335.56 293.75 364.79 292.7 364.07 285.85 358.88 216.08 312.25 216.08 306.84 285.85 306.13 292.7 335.36 293.75 335.36 293.75 335.46 293.75 335.56 293.75 335.56 293.75"/><path class="cls-41" d="M320.54,216.08s4.31,54.88,9.57,65.33,34.41,8.72,34.41,8.72l.26,3.63s-14.26,3.71-27.63,3.71S306,293.76,306,293.76l6.26-77.68Z"/><polygon class="cls-45" points="357.42 220.09 361.82 185.12 355.18 182.26 350.2 220.09 353.39 225.93 357.42 220.09"/><polygon class="cls-45" points="313.86 220.09 309.45 185.12 316.09 182.26 321.07 220.09 317.88 225.93 313.86 220.09"/><path class="cls-45" d="M305.52,296,305.4,290a205,205,0,0,0,30.17,2.73,199.11,199.11,0,0,0,29.9-2.73l.33,6.06s-18.64,3.66-30.39,3.66S305.52,296,305.52,296Z"/><path class="cls-64" d="M318.84,219.4a1.8,1.8,0,1,1-1.79-2A1.88,1.88,0,0,1,318.84,219.4Z"/><path class="cls-64" d="M356,219.4a1.8,1.8,0,1,1-1.79-2A1.88,1.88,0,0,1,356,219.4Z"/><path class="cls-37" d="M294.43,190.62S286.85,193,281,208.34s-10.24,46.58-10.24,46.58a32.72,32.72,0,0,0,11.85,5.62c7.72,2.09,11,1.24,11,1.24L302,229.41S303.91,191.17,294.43,190.62Z"/><path class="cls-37" d="M373.65,189.23s7.83,1.1,15.81,15.24,19.12,43.87,19.12,43.87a33.35,33.35,0,0,1-10.86,7.55c-7.33,3.36-10.86,3.28-10.86,3.28l-15.18-30.34S364.35,191.38,373.65,189.23Z"/><path class="cls-34" d="M266.8,339.45a39.63,39.63,0,0,0,1.66,5.9,24.38,24.38,0,0,0,2.59,3.26,5,5,0,0,1,1,3.25c-.59.93-2-.2-2.64-1A26.69,26.69,0,0,1,266.6,347c-.68-1.3-2.48-4.39-2.57-5.51S266.8,339.45,266.8,339.45Z"/><path class="cls-34" d="M266.14,338.06a35.31,35.31,0,0,0,2.94,4.77c.81.77,1.54.64,2.79,1.08,1.05.36,2.35,1.26,2.44,2.31s-1.56.69-2.45.53a8.5,8.5,0,0,1-4-1.89c-.93-.95-3.3-3.18-3.65-4.15S266.14,338.06,266.14,338.06Z"/><path class="cls-34" d="M266.11,337.36a28,28,0,0,0,3.08,3.47c.77.5,1.36.28,2.46.43.92.13,2.12.65,2.34,1.51s-1.21.83-2,.85a7,7,0,0,1-3.6-.9c-.9-.64-3.16-2.09-3.58-2.84S266.11,337.36,266.11,337.36Z"/><polygon class="cls-65" points="287.42 314.75 251.53 372.92 248.73 370.86 284.62 312.68 287.42 314.75"/><polygon class="cls-65" points="289 360.92 243.41 323.43 245.44 320.48 291.04 357.96 289 360.92"/><path class="cls-65" d="M242.51,324.8l-5.85-5.25,4.09-5.45,5.85,5.25a3.77,3.77,0,0,1,.45,5h0A3,3,0,0,1,242.51,324.8Z"/><path class="cls-65" d="M291.63,356.27l5.85,5.25L293.39,367l-5.85-5.25a3.76,3.76,0,0,1-.44-5h0A3,3,0,0,1,291.63,356.27Z"/><path class="cls-65" d="M252.8,374.42l-4,7-5.46-3.74,4-7a3.06,3.06,0,0,1,4.44-1.11h0A3.73,3.73,0,0,1,252.8,374.42Z"/><path class="cls-65" d="M283.25,312.27l4-7,5.45,3.77-4.05,7a3.06,3.06,0,0,1-4.44,1.1h0A3.72,3.72,0,0,1,283.25,312.27Z"/><path class="cls-36" d="M265.28,332.78s-2,7.57-1,8.49,5.67,7.22,6.18,7.94,1.19,1.7,1.65-1.34-2-5.71-1.47-6.64,4-3.8,4.35-7.8-1.91-5.87-2.94-6.44S264.77,329.69,265.28,332.78Z"/><path class="cls-40" d="M410.59,424.83l-20.25,2.73c-4.79.64-9.2-3.12-9.79-8.36L368.39,311.27c-.6-5.25,2.84-10.06,7.64-10.71l20.24-2.73c4.8-.64,9.2,3.12,9.79,8.36l12.17,107.94C418.82,419.37,415.38,424.18,410.59,424.83Z"/><polygon points="401.81 426.01 399.11 426.38 384.8 299.38 387.5 299.01 401.81 426.01"/><polygon points="408 425.18 406.86 425.33 392.54 298.33 393.69 298.18 408 425.18"/><polygon points="412.4 424.58 411.25 424.74 396.94 297.74 398.08 297.59 412.4 424.58"/><polygon points="389.88 427.62 388.73 427.77 374.42 300.78 375.56 300.62 389.88 427.62"/><polygon points="394.27 427.03 393.13 427.18 378.82 300.19 379.96 300.03 394.27 427.03"/><path class="cls-53" d="M397.55,297.76a11.42,11.42,0,0,1,.28,1.46l12.05,106.89c.62,5.53-2.58,10.55-7.13,11.16l-21.15,2.85a5.63,5.63,0,0,1-.82,0c1.14,4.76,5,8.05,9.1,7.49L411,424.77c4.54-.61,7.75-5.64,7.13-11.17L406.12,306.71C405.54,301.52,401.77,297.71,397.55,297.76Z"/></g></g></g></svg>